<svg width="258" height="47" viewBox="0 0 258 47" fill="none" xmlns="http://www.w3.org/2000/svg">
<g clip-path="url(#clip0_122_473)">
<path d="M-1 1.08398V45.5918H9.47735V10.807H25.4029C28.9233 10.9746 30.7741 12.2413 31.0188 15.9199C31.1012 19.6888 29.0071 21.1167 25.4029 21.3681H9.98026L30.6835 45.5918H45.0165L30.6835 29.2471C38.8675 26.1881 41.3668 23.3022 41.1609 13.9921C40.7023 6.62681 35.8803 1.5869 28.0851 1.1678L-1 1.08398Z" fill="#FF9457"/>
<path d="M67.8999 1L47.8672 45.5078H59.1827L73.5996 12.9023L88.0164 45.5078H99.4996L79.2154 1H67.8999Z" fill="#FF9457"/>
<path d="M81.4785 45.5078H65.6368C65.6368 41.9874 67.8999 36.5392 73.5996 36.5392C79.2992 36.5392 81.0594 41.4845 81.4785 45.5078Z" fill="#FF9457"/>
<path fill-rule="evenodd" clip-rule="evenodd" d="M107.545 45.5084V1.00067H129.17C142.677 0.920196 152.807 8.12533 152.807 23.3803C152.807 38.6352 141.953 45.6833 129.925 45.5084H107.545ZM117.938 10.556V36.1207C135.233 37.007 141.911 33.9415 141.911 23.3803C141.911 12.819 134.311 10.2882 117.938 10.556Z" fill="#FF9457"/>
<path d="M173.761 1.16797L153.729 45.6757H165.044L179.461 13.0702L193.878 45.6757H205.361L185.077 1.16797H173.761Z" fill="#FF9457"/>
<path d="M187.34 45.6757H171.498C171.498 42.1553 173.761 36.7071 179.461 36.7071C185.161 36.7071 186.921 41.6524 187.34 45.6757Z" fill="#FF9457"/>
<path d="M211.984 1V45.5078H222.462V10.723H238.387C241.908 10.8906 243.758 12.1573 244.003 15.8359C244.086 19.6048 241.992 21.0327 238.387 21.2841H222.965L243.668 45.5078H258.001L243.668 29.1631C251.852 26.1041 254.351 23.2182 254.145 13.9081C253.687 6.54282 248.865 1.50291 241.069 1.08382L211.984 1Z" fill="#FF9457"/>
</g>
<defs>
<clipPath id="clip0_122_473">
<rect width="258" height="47" fill="white"/>
</clipPath>
</defs>
</svg>
